<svg width="80" height="80" viewBox="0 0 80 80" fill="none" xmlns="http://www.w3.org/2000/svg">
<path fill-rule="evenodd" clip-rule="evenodd" d="M23.1494 35.5347C22.3355 35.5496 21.5433 35.781 20.9424 36.3819C20.7032 36.621 20.5275 36.8931 20.3955 37.1827C20.3913 37.1883 20.3871 37.194 20.383 37.1998L5.08516 71.7383C4.98282 71.969 4.95272 72.2253 4.99879 72.4734C5.04486 72.7216 5.16497 72.95 5.3433 73.1286C5.52162 73.3071 5.74983 73.4276 5.9979 73.474C6.24597 73.5205 6.50229 73.4907 6.73314 73.3887L41.1765 58.1299C41.1896 58.1229 41.2026 58.1155 41.2155 58.108C41.5324 57.9734 41.8305 57.7884 42.0895 57.5294C42.8907 56.7282 43.0358 55.5868 42.8854 54.5093C42.735 53.4319 42.3061 52.2861 41.6672 51.0474C40.3892 48.5702 38.2449 45.7306 35.4928 42.9786C32.7408 40.2266 29.9037 38.0847 27.4264 36.8067C26.1878 36.1677 25.0419 35.7364 23.9645 35.586C23.6952 35.5484 23.4207 35.5298 23.1494 35.5347ZM23.2129 38.0299C23.3242 38.03 23.4573 38.0391 23.6182 38.0616C24.2619 38.1514 25.2045 38.4739 26.2793 39.0284C28.4291 40.1374 31.1262 42.1467 33.7256 44.7462C36.3251 47.3456 38.3368 50.0451 39.4459 52.1949C40.0004 53.2698 40.3204 54.2099 40.4102 54.8536C40.5 55.4972 40.3757 55.7085 40.3223 55.7618C40.2691 55.8151 40.0577 55.9419 39.4141 55.8521C38.7704 55.7623 37.8279 55.4423 36.753 54.8878C34.6033 53.7787 31.9037 51.767 29.3043 49.1676C26.7048 46.5681 24.6955 43.871 23.5865 41.7213C23.032 40.6464 22.7119 39.7038 22.6221 39.0601C22.5569 38.5923 22.6048 38.3566 22.6563 38.2398L22.6687 38.2154V38.2129C22.6836 38.185 22.699 38.1607 22.7102 38.1494C22.7502 38.1095 22.879 38.0295 23.2129 38.0299ZM20.9717 42.046C21.0939 42.3155 21.2234 42.5874 21.3672 42.8663C22.6452 45.3435 24.7846 48.1831 27.5367 50.9351C30.2887 53.6872 33.1307 55.829 35.608 57.107C35.8852 57.25 36.1554 57.3786 36.4234 57.5001L26.7872 61.7676C24.7424 60.5667 22.3972 58.7161 20.2295 56.5504C18.8199 55.1392 17.5357 53.6449 16.4747 52.1973L20.9717 42.046ZM15.3223 54.8023C16.269 55.9923 17.3265 57.1785 18.462 58.3155C20.2725 60.1247 22.1851 61.7285 24.0381 62.9859L8.68169 69.7901L15.3223 54.8023Z" fill="black"/>
<path fill-rule="evenodd" clip-rule="evenodd" d="M67.0361 32.6781C60.2196 32.0874 54.545 34.5136 50.4028 37.4657C44.8799 41.4019 41.875 46.3012 41.875 46.3012C41.7888 46.4411 41.731 46.5966 41.7049 46.7589C41.6788 46.9211 41.685 47.0869 41.7231 47.2468C41.7612 47.4067 41.8305 47.5575 41.9269 47.6905C42.0234 47.8236 42.1451 47.9364 42.2852 48.0224C42.5675 48.1957 42.9071 48.2499 43.2294 48.173C43.5517 48.0961 43.8303 47.8944 44.0039 47.6122C44.0039 47.6122 46.7782 43.1187 51.853 39.5018C56.9279 35.885 64.097 33.175 73.3252 36.7016C73.6347 36.8199 73.9785 36.8106 74.2812 36.6755C74.5838 36.5405 74.8204 36.2908 74.939 35.9813C75.0573 35.6718 75.048 35.328 74.9129 35.0254C74.7779 34.7228 74.5282 34.4862 74.2187 34.3676C71.7072 33.4078 69.3083 32.875 67.0361 32.6781Z" fill="black"/>
<path fill-rule="evenodd" clip-rule="evenodd" d="M55.4834 10.0683C55.1536 10.0378 54.8251 10.1394 54.5701 10.3509C54.3151 10.5624 54.1545 10.8664 54.1236 11.1963C54.1236 11.1963 53.621 16.4526 50.669 21.9409C47.7169 27.4292 42.4853 33.0319 32.649 33.9502C32.3191 33.9811 32.0151 34.1417 31.8036 34.3967C31.5921 34.6517 31.4905 34.9802 31.521 35.31C31.552 35.6399 31.7126 35.9439 31.9675 36.1554C32.2225 36.3669 32.551 36.4685 32.8809 36.438C43.5889 35.4383 49.6585 29.0978 52.8711 23.125C56.0838 17.1521 56.6114 11.4282 56.6114 11.4282C56.6419 11.0983 56.5403 10.7698 56.3288 10.5148C56.1173 10.2599 55.8132 10.0993 55.4834 10.0683Z" fill="black"/>
<path fill-rule="evenodd" clip-rule="evenodd" d="M27.7661 19.5044C25.7099 19.5044 24.0161 21.1981 24.0161 23.2544C24.0161 25.3107 25.7099 27.0044 27.7661 27.0044C29.8224 27.0044 31.5161 25.3107 31.5161 23.2544C31.5161 21.1981 29.8224 19.5044 27.7661 19.5044ZM27.7661 22.0044C28.4713 22.0044 29.0161 22.5492 29.0161 23.2544C29.0161 23.9596 28.4713 24.5044 27.7661 24.5044C27.061 24.5044 26.5161 23.9596 26.5161 23.2544C26.5161 22.5492 27.061 22.0044 27.7661 22.0044Z" fill="black"/>
<path fill-rule="evenodd" clip-rule="evenodd" d="M69.2847 9.68994C66.8027 9.68994 64.7632 11.7295 64.7632 14.2114C64.7632 16.6934 66.8027 18.7329 69.2847 18.7329C71.7666 18.7329 73.8062 16.6934 73.8062 14.2114C73.8062 11.7295 71.7666 9.68994 69.2847 9.68994ZM69.2847 12.1899C70.4155 12.1899 71.3062 13.0806 71.3062 14.2114C71.3062 15.3423 70.4155 16.2329 69.2847 16.2329C68.1538 16.2329 67.2632 15.3423 67.2632 14.2114C67.2632 13.0806 68.1538 12.1899 69.2847 12.1899Z" fill="black"/>
<path fill-rule="evenodd" clip-rule="evenodd" d="M71.272 57.2192C69.2157 57.2192 67.522 58.913 67.522 60.9692C67.522 63.0255 69.2157 64.7192 71.272 64.7192C73.3282 64.7192 75.022 63.0255 75.022 60.9692C75.022 58.913 73.3282 57.2192 71.272 57.2192ZM71.272 59.7192C71.9771 59.7192 72.522 60.2641 72.522 60.9692C72.522 61.6744 71.9771 62.2192 71.272 62.2192C70.5668 62.2192 70.022 61.6744 70.022 60.9692C70.022 60.2641 70.5668 59.7192 71.272 59.7192Z" fill="black"/>
<path fill-rule="evenodd" clip-rule="evenodd" d="M44.0674 9.79492C43.7359 9.79492 43.4179 9.92662 43.1835 10.161C42.9491 10.3955 42.8174 10.7134 42.8174 11.0449V12.7783H41.084C40.7525 12.7783 40.4345 12.91 40.2001 13.1444C39.9657 13.3789 39.834 13.6968 39.834 14.0283C39.834 14.3598 39.9657 14.6778 40.2001 14.9122C40.4345 15.1466 40.7525 15.2783 41.084 15.2783H42.8174V17.0117C42.8174 17.3432 42.9491 17.6612 43.1835 17.8956C43.4179 18.13 43.7359 18.2617 44.0674 18.2617C44.3989 18.2617 44.7169 18.13 44.9513 17.8956C45.1857 17.6612 45.3174 17.3432 45.3174 17.0117V15.2783H47.0508C47.3823 15.2783 47.7002 15.1466 47.9346 14.9122C48.1691 14.6778 48.3008 14.3598 48.3008 14.0283C48.3008 13.6968 48.1691 13.3789 47.9346 13.1444C47.7002 12.91 47.3823 12.7783 47.0508 12.7783H45.3174V11.0449C45.3174 10.7134 45.1857 10.3955 44.9513 10.161C44.7169 9.92662 44.3989 9.79492 44.0674 9.79492Z" fill="black"/>
<path fill-rule="evenodd" clip-rule="evenodd" d="M59.2945 22.4854C58.963 22.4854 58.6451 22.6171 58.4107 22.8516C58.1763 23.086 58.0447 23.4039 58.0447 23.7354C58.0447 24.0668 58.1763 24.3847 58.4107 24.6191L59.6363 25.8447L58.4107 27.0703C58.1763 27.3047 58.0447 27.6226 58.0447 27.9541C58.0447 28.2856 58.1763 28.6035 58.4107 28.8379C58.6451 29.0723 58.963 29.2039 59.2945 29.2039C59.626 29.2039 59.9439 29.0723 60.1783 28.8379L61.4039 27.6123L62.6294 28.8379C62.8639 29.0723 63.1818 29.2039 63.5132 29.2039C63.8447 29.2039 64.1626 29.0723 64.397 28.8379C64.6314 28.6035 64.763 28.2856 64.763 27.9541C64.763 27.6226 64.6314 27.3047 64.397 27.0703L63.1714 25.8447L64.397 24.6191C64.6314 24.3847 64.763 24.0668 64.763 23.7354C64.763 23.4039 64.6314 23.086 64.397 22.8516C64.1626 22.6171 63.8447 22.4854 63.5132 22.4854C63.1817 22.4854 62.8638 22.6171 62.6294 22.8516L61.4039 24.0771L60.1783 22.8516C59.9439 22.6171 59.626 22.4854 59.2945 22.4854Z" fill="black"/>
<path fill-rule="evenodd" clip-rule="evenodd" d="M60.5298 45.2246C60.1983 45.2246 59.8803 45.3563 59.6459 45.5907C59.4115 45.8251 59.2798 46.1431 59.2798 46.4746V48.208H57.5464C57.2149 48.208 56.8969 48.3397 56.6625 48.5741C56.4281 48.8085 56.2964 49.1265 56.2964 49.458C56.2964 49.7895 56.4281 50.1075 56.6625 50.3419C56.8969 50.5763 57.2149 50.708 57.5464 50.708H59.2798V52.4414C59.2798 52.7729 59.4115 53.0909 59.6459 53.3253C59.8803 53.5597 60.1983 53.6914 60.5298 53.6914C60.8613 53.6914 61.1793 53.5597 61.4137 53.3253C61.6481 53.0909 61.7798 52.7729 61.7798 52.4414V50.708H63.5132C63.8447 50.708 64.1627 50.5763 64.3971 50.3419C64.6315 50.1075 64.7632 49.7895 64.7632 49.458C64.7632 49.1265 64.6315 48.8085 64.3971 48.5741C64.1627 48.3397 63.8447 48.208 63.5132 48.208H61.7798V46.4746C61.7798 46.1431 61.6481 45.8251 61.4137 45.5907C61.1793 45.3563 60.8613 45.2246 60.5298 45.2246Z" fill="black"/>
<path fill-rule="evenodd" clip-rule="evenodd" d="M48.9038 56.5087C48.7409 56.53 48.5838 56.5833 48.4415 56.6654C48.2992 56.7476 48.1744 56.857 48.0744 56.9874C47.9744 57.1177 47.9011 57.2666 47.8587 57.4253C47.8163 57.584 47.8055 57.7496 47.8271 57.9125C47.8709 58.2411 48.0433 58.5389 48.3066 58.7403C48.5698 58.9418 48.9024 59.0304 49.231 58.9867C49.5799 58.9406 49.9367 58.9406 50.2856 58.9867C50.6889 59.04 51.0649 59.1557 51.3794 59.3261C51.6908 59.4948 51.954 59.7261 52.124 59.9804C52.2908 60.2299 52.3795 60.5283 52.3755 60.7811C52.3717 61.0264 52.2699 61.2772 52.1362 61.4232C52.0444 61.5236 51.8939 61.632 51.7017 61.7138C51.5062 61.7969 51.2621 61.8578 50.979 61.9017C50.4111 61.99 49.6778 61.9846 48.8208 62.1557C47.4317 62.4329 46.1627 63.1618 45.2222 64.2211C44.2817 65.2803 43.7096 66.6273 43.5986 68.0394C43.4876 69.4517 43.8434 70.8697 44.6069 72.0629C45.3705 73.256 46.5106 74.1746 47.8394 74.6654C49.1682 75.1563 50.6315 75.2002 51.9873 74.7899C53.3431 74.3797 54.5349 73.5328 55.3687 72.3876C56.2024 71.2424 56.6423 69.8464 56.6162 68.4301C56.5901 67.0138 56.0999 65.6351 55.2246 64.5214C55.1231 64.3923 54.9973 64.2845 54.8541 64.2041C54.711 64.1237 54.5534 64.0723 54.3904 64.0528C54.2274 64.0333 54.0622 64.0461 53.9041 64.0905C53.7461 64.1349 53.5983 64.2099 53.4692 64.3114C53.3402 64.4129 53.2324 64.5388 53.152 64.6819C53.0716 64.825 53.0202 64.9826 53.0007 65.1456C52.9812 65.3086 52.994 65.4739 53.0384 65.6319C53.0827 65.79 53.1578 65.9377 53.2593 66.0668C53.7899 66.7419 54.1004 67.6178 54.1162 68.4765C54.132 69.335 53.8526 70.2212 53.3472 70.9154C52.8418 71.6097 52.0841 72.1486 51.2622 72.3974C50.4403 72.6461 49.5116 72.6168 48.7061 72.3192C47.9005 72.0217 47.1743 71.4385 46.7114 70.7152C46.2486 69.9919 46.024 69.0908 46.0913 68.2348C46.1586 67.3787 46.5221 66.5234 47.0923 65.8812C47.6624 65.2391 48.4694 64.7774 49.3115 64.6093C49.8403 64.5037 50.5339 64.5011 51.3623 64.3724C51.7774 64.308 52.2259 64.207 52.6807 64.0136C53.1386 63.8188 53.5968 63.5336 53.9819 63.1127C54.5719 62.4678 54.862 61.6468 54.8755 60.8202C54.8885 60.0012 54.6306 59.2328 54.2017 58.5912C53.7759 57.9544 53.2019 57.4683 52.5708 57.1264C51.9428 56.7862 51.2722 56.5959 50.6128 56.5087C50.0453 56.4336 49.4713 56.4336 48.9038 56.5087Z" fill="black"/>
<path fill-rule="evenodd" clip-rule="evenodd" d="M16.2769 5.13912C15.5596 4.95023 14.8081 4.95401 14.0918 5.14644C13.3755 5.33887 12.7233 5.71242 12.1973 6.23531C12.0805 6.3511 11.9878 6.48877 11.9243 6.64046C11.8609 6.79215 11.828 6.95486 11.8275 7.11928C11.8271 7.2837 11.859 7.4466 11.9216 7.59864C11.9842 7.75069 12.0762 7.88889 12.1923 8.00533C12.426 8.24034 12.7436 8.37288 13.075 8.3738C13.4065 8.37471 13.7248 8.24393 13.9599 8.01022C14.1718 7.7995 14.4524 7.63854 14.7411 7.561C15.0298 7.48345 15.353 7.48244 15.642 7.55856C15.931 7.63468 16.2102 7.79322 16.4232 8.0029C16.6363 8.21257 16.8015 8.49148 16.8822 8.77926C17.0254 9.28994 16.9297 10.0615 16.8772 11.0595C16.851 11.5612 16.8475 12.1277 16.9797 12.7343C17.1138 13.3488 17.3861 13.9921 17.9026 14.5263C18.3359 14.9746 18.8861 15.283 19.4944 15.4199C20.1027 15.5568 20.732 15.5148 21.3157 15.2954C21.8993 15.076 22.4008 14.6931 22.7683 14.1894C23.1358 13.6857 23.3455 13.0934 23.3762 12.4707C23.3844 12.3067 23.3603 12.1427 23.3051 11.988C23.2499 11.8333 23.1647 11.6911 23.0546 11.5693C22.9444 11.4476 22.8113 11.3487 22.6629 11.2784C22.5145 11.2081 22.3537 11.1678 22.1897 11.1596C22.0257 11.1514 21.8617 11.1756 21.707 11.2308C21.5524 11.286 21.4101 11.3711 21.2883 11.4813C21.1666 11.5915 21.0677 11.7246 20.9974 11.873C20.9271 12.0214 20.8868 12.1822 20.8787 12.3462C20.8724 12.4722 20.8211 12.6153 20.7468 12.7173C20.6724 12.8192 20.5525 12.9097 20.4343 12.9541C20.3162 12.9985 20.1668 13.0086 20.0437 12.9809C19.9206 12.9532 19.7896 12.8788 19.7019 12.7881C19.593 12.6755 19.4813 12.4666 19.4236 12.2021C19.3642 11.9298 19.3516 11.5881 19.3723 11.1914C19.4142 10.3927 19.6318 9.32469 19.2893 8.103C19.0891 7.38884 18.7046 6.74095 18.1761 6.22068C17.6475 5.7004 16.9941 5.32801 16.2769 5.13912Z" fill="black"/>
</svg>
