<svg width="100" height="100" viewBox="0 0 100 100" fill="none" xmlns="http://www.w3.org/2000/svg">
<g clip-path="url(#clip0_42_27)">
<path d="M57.6889 96.1388C55.6491 98.177 52.8836 99.3219 50 99.3219C47.1164 99.3219 44.3509 98.177 42.3111 96.1388L3.86113 57.6888C2.85123 56.6792 2.05012 55.4805 1.50355 54.1612C0.956977 52.8419 0.675659 51.4279 0.675659 49.9999C0.675659 48.5719 0.956977 47.1578 1.50355 45.8386C2.05012 44.5193 2.85123 43.3206 3.86113 42.311L42.3083 3.861C43.318 2.8511 44.5166 2.04999 45.8359 1.50342C47.1552 0.956855 48.5692 0.675537 49.9972 0.675537C51.4252 0.675537 52.8393 0.956855 54.1585 1.50342C55.4778 2.04999 56.6765 2.8511 57.6861 3.861L96.1389 42.311C98.1771 44.3507 99.3221 47.1163 99.3221 49.9999C99.3221 52.8834 98.1771 55.649 96.1389 57.6888L57.6889 96.1388Z" fill="black"/>
<path d="M54.1389 91.4082C53.0405 92.5047 51.552 93.1205 50 93.1205C48.448 93.1205 46.9595 92.5047 45.8611 91.4082L8.59446 54.1388C8.05021 53.5957 7.61842 52.9505 7.32382 52.2403C7.02921 51.5301 6.87756 50.7688 6.87756 49.9999C6.87756 49.231 7.02921 48.4697 7.32382 47.7595C7.61842 47.0493 8.05021 46.4041 8.59446 45.861L45.8611 8.59434C46.4042 8.05009 47.0494 7.6183 47.7596 7.32369C48.4698 7.02909 49.2311 6.87744 50 6.87744C50.7689 6.87744 51.5302 7.02909 52.2404 7.32369C52.9506 7.6183 53.5958 8.05009 54.1389 8.59434L91.4083 45.861C92.5048 46.9594 93.1206 48.4479 93.1206 49.9999C93.1206 51.5519 92.5048 53.0404 91.4083 54.1388L54.1389 91.4082Z" fill="white"/>
<path d="M52.0694 85.1944C51.7983 85.4674 51.4759 85.684 51.1208 85.8318C50.7656 85.9797 50.3847 86.0558 50 86.0558C49.6153 86.0558 49.2344 85.9797 48.8792 85.8318C48.524 85.684 48.2016 85.4674 47.9305 85.1944L14.8028 52.0694C14.2542 51.5204 13.946 50.7761 13.946 50C13.946 49.2239 14.2542 48.4795 14.8028 47.9305L47.9305 14.8028C48.4795 14.2542 49.2239 13.946 50 13.946C50.7761 13.946 51.5204 14.2542 52.0694 14.8028L85.1944 47.9305C85.4667 48.202 85.6828 48.5245 85.8302 48.8797C85.9776 49.2348 86.0535 49.6155 86.0535 50C86.0535 50.3845 85.9776 50.7652 85.8302 51.1203C85.6828 51.4754 85.4667 51.798 85.1944 52.0694L52.0694 85.1944Z" fill="black"/>
<path d="M74.1861 48.0334L64.1361 37.9806C65.6583 36.9917 66.6666 35.2834 66.6666 33.3334C66.6666 31.86 66.0813 30.4469 65.0395 29.405C63.9976 28.3631 62.5845 27.7778 61.1111 27.7778C59.6377 27.7778 58.2246 28.3631 57.1827 29.405C56.1409 30.4469 55.5555 31.86 55.5555 33.3334C55.5555 35.2862 56.5639 36.9945 58.0861 37.9834L49.1472 46.9251L42.9889 45.3834C43.9223 44.3705 44.4418 43.0442 44.4444 41.6667C44.4444 40.1933 43.8591 38.7802 42.8172 37.7384C41.7754 36.6965 40.3623 36.1112 38.8889 36.1112C37.4154 36.1112 36.0024 36.6965 34.9605 37.7384C33.9186 38.7802 33.3333 40.1933 33.3333 41.6667C33.3333 43.5251 34.2555 45.1639 35.6583 46.1723L26.1083 53.3334C25.8165 53.5523 25.5706 53.8265 25.3848 54.1404C25.1989 54.4542 25.0767 54.8017 25.0251 55.1628C24.9209 55.8921 25.1107 56.6329 25.5528 57.2223C25.9948 57.8116 26.6528 58.2013 27.3821 58.3055C28.1115 58.4097 28.8523 58.2199 29.4416 57.7778L34.2611 54.1612L30.3861 65.7889C30.2469 66.2068 30.2091 66.6517 30.2757 67.087C30.3424 67.5223 30.5115 67.9355 30.7693 68.2926C31.027 68.6497 31.366 68.9403 31.7582 69.1406C32.1504 69.3409 32.5846 69.445 33.025 69.4445C34.1889 69.4445 35.2722 68.7084 35.6611 67.5445L38.6528 58.5695L41.825 67.5862C41.9399 67.938 42.1239 68.2634 42.3663 68.5431C42.6087 68.8229 42.9046 69.0514 43.2365 69.2151C43.5684 69.3789 43.9298 69.4747 44.2992 69.4969C44.6687 69.519 45.0389 69.4671 45.3881 69.3442C45.7372 69.2213 46.0583 69.0298 46.3324 68.7811C46.6065 68.5323 46.8281 68.2313 46.9842 67.8957C47.1403 67.5601 47.2278 67.1966 47.2415 66.8267C47.2552 66.4568 47.1948 66.0879 47.0639 65.7417L41.8111 50.8139L49.325 52.6945C49.7904 52.8119 50.2784 52.8062 50.741 52.6782C51.2037 52.5501 51.625 52.304 51.9639 51.9639L57.125 46.8056L52.8444 66.0667C52.7654 66.4229 52.7574 66.7912 52.8208 67.1505C52.8841 67.5098 53.0176 67.8532 53.2137 68.1609C53.6096 68.7824 54.2361 69.2211 54.9555 69.3806C55.6749 69.5401 56.4282 69.4073 57.0497 69.0114C57.6712 68.6155 58.1099 67.9889 58.2694 67.2695L61.1111 54.4695L63.9528 67.2667C64.1433 67.9534 64.5899 68.5409 65.2007 68.9081C65.8115 69.2753 66.5398 69.3943 67.2357 69.2404C67.9315 69.0866 68.5418 68.6717 68.9409 68.0812C69.3399 67.4908 69.4973 66.7697 69.3805 66.0667L65.1 46.8056L70.2611 51.9639C70.5192 52.2217 70.8255 52.426 71.1626 52.5654C71.4996 52.7047 71.8608 52.7763 72.2256 52.776C72.5903 52.7758 72.9514 52.7037 73.2883 52.5639C73.6251 52.424 73.9311 52.2192 74.1889 51.9612C74.4466 51.7031 74.6509 51.3968 74.7903 51.0597C74.9296 50.7226 75.0012 50.3614 75.0009 49.9967C75.0007 49.632 74.9286 49.2709 74.7888 48.934C74.649 48.5971 74.4442 48.2911 74.1861 48.0334Z" fill="white"/>
</g>
<defs>
<clipPath id="clip0_42_27">
<rect width="100" height="100" fill="white"/>
</clipPath>
</defs>
</svg>
