<svg width="94" height="93" viewBox="0 0 94 93" fill="none" xmlns="http://www.w3.org/2000/svg">
<path d="M52.875 32.9792V30.6035C52.8738 29.6953 52.5937 28.8087 52.0717 28.0609C51.5496 27.3131 50.8102 26.7392 49.951 26.4151C50.6125 25.8259 51.0777 25.0527 51.2851 24.1972C51.4926 23.3418 51.4325 22.4443 51.113 21.6233C50.7934 20.8022 50.2293 20.096 49.495 19.598C48.7607 19.0999 47.8908 18.8333 47 18.8333C46.1092 18.8333 45.2393 19.0999 44.505 19.598C43.7707 20.096 43.2066 20.8022 42.887 21.6233C42.5675 22.4443 42.5074 23.3418 42.7149 24.1972C42.9223 25.0527 43.3875 25.8259 44.049 26.4151C43.1898 26.7392 42.4504 27.3131 41.9283 28.0609C41.4063 28.8087 41.1262 29.6953 41.125 30.6035V32.9792C42.8473 34.1686 44.8983 34.8065 47 34.8065C49.1017 34.8065 51.1527 34.1686 52.875 32.9792Z" fill="black"/>
<path d="M49.951 72.8237C50.6125 72.2346 51.0777 71.4614 51.2851 70.6059C51.4926 69.7505 51.4325 68.853 51.113 68.032C50.7934 67.2109 50.2293 66.5047 49.495 66.0066C48.7607 65.5086 47.8908 65.2419 47 65.2419C46.1092 65.2419 45.2393 65.5086 44.505 66.0066C43.7707 66.5047 43.2066 67.2109 42.887 68.032C42.5675 68.853 42.5074 69.7505 42.7149 70.6059C42.9223 71.4614 43.3875 72.2346 44.049 72.8237C43.1898 73.1479 42.4504 73.7218 41.9283 74.4696C41.4063 75.2174 41.1262 76.104 41.125 77.0122V79.3879C42.8473 80.5773 44.8983 81.2152 47 81.2152C49.1017 81.2152 51.1527 80.5773 52.875 79.3879V77.0122C52.8738 76.104 52.5937 75.2174 52.0717 74.4696C51.5496 73.7218 50.8102 73.1479 49.951 72.8237Z" fill="black"/>
<path d="M29.375 56.1836V53.808C29.3738 52.8997 29.0937 52.0132 28.5717 51.2654C28.0496 50.5176 27.3102 49.9437 26.451 49.6195C27.1125 49.0304 27.5777 48.2571 27.7851 47.4017C27.9926 46.5463 27.9325 45.6488 27.613 44.8277C27.2934 44.0067 26.7293 43.3005 25.995 42.8024C25.2607 42.3043 24.3908 42.0377 23.5 42.0377C22.6092 42.0377 21.7393 42.3043 21.005 42.8024C20.2707 43.3005 19.7066 44.0067 19.387 44.8277C19.0675 45.6488 19.0074 46.5463 19.2149 47.4017C19.4223 48.2571 19.8875 49.0304 20.549 49.6195C19.6898 49.9437 18.9504 50.5176 18.4283 51.2654C17.9063 52.0132 17.6262 52.8997 17.625 53.808V56.1836C19.3473 57.3731 21.3983 58.011 23.5 58.011C25.6017 58.011 27.6527 57.3731 29.375 56.1836Z" fill="black"/>
<path d="M76.375 56.1836V53.808C76.3738 52.8997 76.0937 52.0132 75.5717 51.2654C75.0496 50.5176 74.3102 49.9437 73.451 49.6195C74.1125 49.0304 74.5777 48.2571 74.7851 47.4017C74.9926 46.5463 74.9325 45.6488 74.613 44.8277C74.2934 44.0067 73.7293 43.3005 72.995 42.8024C72.2607 42.3043 71.3908 42.0377 70.5 42.0377C69.6092 42.0377 68.7393 42.3043 68.005 42.8024C67.2707 43.3005 66.7066 44.0067 66.387 44.8277C66.0675 45.6488 66.0074 46.5463 66.2149 47.4017C66.4223 48.2571 66.8875 49.0304 67.549 49.6195C66.6898 49.9437 65.9504 50.5176 65.4283 51.2654C64.9063 52.0132 64.6262 52.8997 64.625 53.808V56.1836C66.3473 57.3731 68.3983 58.011 70.5 58.011C72.6017 58.011 74.6527 57.3731 76.375 56.1836Z" fill="black"/>
<path d="M47 91.3672C55.7148 91.3672 64.2338 88.8155 71.4798 84.0347C78.7259 79.254 84.3735 72.4589 87.7085 64.5089C91.0435 56.5588 91.9161 47.8107 90.2159 39.371C88.5157 30.9312 84.3192 23.1788 78.1569 17.0941C71.9947 11.0094 64.1435 6.86562 55.5962 5.18685C47.0489 3.50807 38.1894 4.36968 30.138 7.66271C22.0867 10.9557 15.205 16.5323 10.3634 23.6872C5.52172 30.842 2.9375 39.2539 2.9375 47.859C2.9375 59.3981 7.57979 70.4646 15.8431 78.6239C24.1064 86.7833 35.3139 91.3672 47 91.3672ZM47 82.6655C44.3856 82.6655 41.8299 81.9 39.6561 80.4658C37.4823 79.0316 35.788 76.9931 34.7875 74.608C33.787 72.223 33.5252 69.5986 34.0353 67.0667C34.5453 64.5348 35.8043 62.209 37.653 60.3836C39.5016 58.5582 41.857 57.3151 44.4212 56.8114C46.9854 56.3078 49.6432 56.5663 52.0586 57.5542C54.474 58.5421 56.5385 60.2151 57.991 62.3615C59.4435 64.508 60.2188 67.0316 60.2188 69.6131C60.2188 73.0748 58.8261 76.3948 56.3471 78.8426C53.8681 81.2904 50.5059 82.6655 47 82.6655ZM70.5 33.3563C73.1145 33.3563 75.6702 34.1218 77.844 35.556C80.0178 36.9902 81.7121 39.0288 82.7126 41.4138C83.7131 43.7988 83.9748 46.4232 83.4648 48.9551C82.9548 51.4871 81.6958 53.8128 79.8471 55.6382C77.9984 57.4636 75.6431 58.7068 73.0789 59.2104C70.5147 59.714 67.8568 59.4555 65.4414 58.4676C63.026 57.4797 60.9615 55.8068 59.509 53.6603C58.0565 51.5138 57.2813 48.9903 57.2813 46.4087C57.2813 42.947 58.674 39.6271 61.153 37.1793C63.632 34.7315 66.9942 33.3563 70.5 33.3563ZM47 10.1519C49.6144 10.1519 52.1702 10.9174 54.344 12.3517C56.5178 13.7859 58.2121 15.8244 59.2126 18.2094C60.2131 20.5945 60.4748 23.2189 59.9648 25.7508C59.4547 28.2827 58.1958 30.6084 56.3471 32.4339C54.4984 34.2593 52.1431 35.5024 49.5789 36.006C47.0147 36.5097 44.3568 36.2512 41.9414 35.2633C39.526 34.2754 37.4615 32.6024 36.009 30.4559C34.5565 28.3095 33.7813 25.7859 33.7813 23.2044C33.7813 19.7427 35.174 16.4227 37.653 13.9749C40.1319 11.5271 43.4942 10.1519 47 10.1519ZM10.2813 46.4087C10.2813 43.8272 11.0565 41.3036 12.509 39.1572C13.9615 37.0107 16.026 35.3378 18.4414 34.3498C20.8568 33.3619 23.5147 33.1035 26.0789 33.6071C28.643 34.1107 30.9984 35.3538 32.8471 37.1793C34.6958 39.0047 35.9547 41.3304 36.4648 43.8623C36.9748 46.3943 36.713 49.0187 35.7126 51.4037C34.7121 53.7887 33.0178 55.8272 30.844 57.2614C28.6701 58.6957 26.1144 59.4612 23.5 59.4612C19.9942 59.4612 16.6319 58.086 14.1529 55.6382C11.6739 53.1904 10.2813 49.8705 10.2813 46.4087Z" fill="black"/>
</svg>
